<?xml version="1.0" encoding="utf-8"?>
<!-- Generator: Adobe Illustrator 25.4.1, SVG Export Plug-In . SVG Version: 6.00 Build 0)  -->
<svg version="1.1" id="Layer_1" xmlns="http://www.w3.org/2000/svg" xmlns:xlink="http://www.w3.org/1999/xlink" x="0px" y="0px"
	 viewBox="0 0 1815.5 646.7" style="enable-background:new 0 0 1815.5 646.7;" xml:space="preserve">
<style type="text/css">
	.st0{enable-background:new    ;}
	.st1{fill:#006DAA;}
	.st2{fill:#FCFCFC;}
	.st3{fill:#020202;}
	.st4{fill:#080808;}
</style>
<g class="st0">
	<path d="M15.6,170v-37.5L232.4,41v40L60.5,151.5l171.9,71.2v40L15.6,170z"/>
</g>
<g class="st0">
	<path d="M1461.8,329.4l88.9-317h30.1l-88.7,317H1461.8z"/>
	<path d="M1807.3,190.1l-203.1,86.8v-37.4l160.8-66.7l-160.8-66.1V69.2l203.1,85.7V190.1z"/>
</g>
<g id="Pupilles">
	<g id="oeil_gauche">
		<g id="Pupille_g">
			<path class="st1" d="M521,196.2l103.3,3.7c-2,4.1-3.7,8-5.9,11.6c-14.5,24.6-35.7,40-63.6,46.2c-1.3,0.3-2.1,0.2-2.8-1.2
				c-10.1-19.7-20.2-39.3-30.3-59C521.4,197.2,521.2,196.9,521,196.2z"/>
			<path class="st1" d="M458.8,222.2c-2.9-4.9-6.1-9.6-8.7-14.6c-8.6-16.4-12.1-35-9.9-53.4c0.8-7,2.9-13.8,4.4-20.7
				c0.3-1.2,0.9-1.6,2.2-1.6c22.1,0.8,44.1,1.6,66.2,2.4c0.4,0,0.8,0.1,1.9,0.2l-55.2,87.7L458.8,222.2z"/>
			<path class="st1" d="M570.6,160c-5.1-9.9-10.3-19.7-15.4-29.6c-1.1-5.3,36.5-2.3,35.1-0.3c-10.7,16.4-7.4,11.2-18.1,27.6
				C571.8,158.3,571.3,159,570.6,160z"/>
			<path class="st1" d="M547.3,259.1c-3.8,0.2-7.2,0.7-10.7,0.7c-28,0-51.7-10.1-71.2-30.2c-0.3-0.4-0.7-0.7-1-1.1
				c-1.7-1.4-1.5-2.6-0.3-4.4c11.8-18.1,23.4-36.2,35.1-54.3c0.4-0.6,0.8-1.2,1.4-2C516.1,198.2,531.6,228.5,547.3,259.1z"/>
			<path class="st1" d="M555.9,192c10.1-15.4,20.2-30.8,30.2-46c8.6-13.1,41.8-9.9,43.8,3.3c2.2,14.5,1.1,29.4-3.2,43.5
				c-0.4,1.3-0.9,1.9-2.4,1.9c-22.1-0.9-44.2-1.7-66.4-2.4C557.4,192.2,557,192.1,555.9,192z"/>
		</g>
		<path id="Main_light_g" class="st2" d="M613.4,202.6c-1.1,0.2-2,0.8-2.7,1.7c-1.8,0.6-3.5,1.4-5.3,1.6c-17,1.5-34.3-2.9-43-20.6
			c-0.5-3.3-1.2-6.5-0.1-9.8c4.4-7.2,11.3-9.3,19.1-10c9.6-0.8,18.2,2,26.3,6.8l3.4,3.1C617.3,184.2,620.7,193,613.4,202.6z"/>
		<path id="fill_light_g" class="st2" d="M472.8,227.3c-0.6,0.3-1,0.7-1.3,1.3c-0.8,0.6-1.6,1-2.5,1.4c-7.8,2.2-15.2,0.9-17.7-9.4
			c-0.1-2,0.1-4.1,0.7-6c1.8-3.8,5.3-6.6,9.4-7.6c3.9-1.2,8.1-0.3,11.3,2.2l1.3,1.6C476,215.5,476.8,220.7,472.8,227.3z"/>
	</g>
	<g id="oeil_droit">
		<g id="Pupille_dr">
			<path class="st1" d="M1227.4,193.9l-103.2,5.3c2.1,4,3.9,7.9,6.1,11.5c14.9,24.4,36.3,39.4,64.3,45.3c1.3,0.3,2.1,0.2,2.8-1.2
				c9.8-19.8,19.6-39.7,29.4-59.4C1227,195,1227.1,194.6,1227.4,193.9z"/>
			<path class="st1" d="M1290,219c2.8-4.9,5.9-9.7,8.5-14.7c8.4-16.5,11.5-35.2,9.1-53.6c-0.9-7-3.1-13.8-4.7-20.7
				c-0.3-1.2-0.9-1.6-2.2-1.6c-22,1.2-44.1,2.3-66.1,3.4c-0.4,0-0.8,0.1-1.9,0.2l56.5,86.9L1290,219z"/>
			<path class="st1" d="M1177.2,158.4l15-29.8c1-5.3-36.5-1.7-35.1,0.2c11,16.2,7.5,11.1,18.5,27.3
				C1176.1,156.8,1176.5,157.5,1177.2,158.4z"/>
			<path class="st1" d="M1202,257.2c3.8,0.2,7.2,0.5,10.7,0.5c28-0.4,51.5-10.8,70.7-31.3c0.3-0.4,0.6-0.7,1-1.1
				c1.7-1.4,1.5-2.6,0.3-4.4c-12-17.9-24-35.8-35.9-53.8c-0.4-0.6-0.8-1.2-1.4-2C1232.3,195.9,1217.3,226.3,1202,257.2z"/>
			<path class="st1" d="M1192.4,190.3l-30.9-45.5c-8.8-13-41.9-9.3-43.7,3.9c-2,14.6-0.7,29.4,3.9,43.4c0.4,1.3,0.9,1.9,2.5,1.8
				c22.1-1.2,44.2-2.3,66.3-3.4C1190.9,190.4,1191.3,190.4,1192.4,190.3z"/>
		</g>
		<path id="Main_light_dr" class="st2" d="M1242.4,183c0.6,0.9,0.9,2,0.8,3c0.9,1.6,1.6,3.4,2.8,4.7c11.6,12.6,27.2,21.1,45.6,13.9
			c2.6-2,5.3-4,6.7-7.2c1.6-8.2-2-14.5-7.3-20.3c-6.5-7.1-14.8-10.8-24-12.8l-4.6-0.1C1252,166.7,1243.6,170.9,1242.4,183z"/>
		<path id="fill_light_dr" class="st2" d="M1145.5,235.9c0.6,0.3,1,0.7,1.3,1.2c0.8,0.5,1.6,1,2.5,1.4c7.8,2.1,15.2,0.7,17.6-9.6
			c0.1-2-0.2-4.1-0.8-6c-1.9-3.8-5.4-6.5-9.5-7.5c-3.9-1.1-8.1-0.2-11.3,2.3l-1.3,1.6C1142.1,224.2,1141.3,229.4,1145.5,235.9z"/>
	</g>
</g>
<g id="Paupieres">
	<path id="Paupière_dr" class="st3" d="M1101.9,282.7c0.7,1.6,2.2,1,3.3,1.1c15.5,1.8,31.1,3.5,46.6,4.3
		c13.3,0.7,26.4,2.5,39.8,2.3c14.6-0.3,29.1,0.7,43.7-0.6c25.9-2.2,49.8-9.7,71.6-23.9c27.1-17.7,48.9-40.6,67.6-66.7
		c9.9-13.8,19.4-28,29.6-41.6c3.3-4.5,6.2-9.2,8.7-14.2c1.5-3.6,5.1-5.9,9-5.8c21.8-0.7,43.5-2.9,65.3-1.8c2.1,0.1,4.3,1.2,6.4,0.1
		c0.1-0.8-31.4-7.8-46.7-10.8c-14.7-2.9-69.6-8.7-82.2-9.4c-11.9-0.7-123,2.1-166.6,4.4c-16.6,0.9-79.9,8.1-94.9,10.2
		c-15.6,2.2-65.6,10.3-74.5,14.2c-4.3,2-8.4,4.5-12,7.5c-19.4,15.3-38,31.5-53.4,51c-5.3,6.7-10.1,13.7-15,20.7
		c8.7-5.3,17.6-10,25.9-15.9c12.9-9.2,25.7-18.6,39.2-27c1.3-0.8,2.7-2.4,4.3-1c1.8,1.6,0.3,3.2-0.4,4.7
		c-7.2,15.7-19.1,50.1-19.2,52.1c3.9-6.4,7.6-11.9,10.8-17.7c6-10.6,34.7-42.5,41.4-49.2c2.1-3.2,5.6-5.4,9.4-5.9
		c11.2-1.8,67.2-7.7,67.4-7.6c1.4-0.1,114.9-11.4,115-11.4c2.1-0.1,117.2-5,136.3-5.5c2.4-0.1,5.4-1.3,6.8,1.7
		c1.3,2.7-45.5,69.8-62.1,86.4c-19,19.1-40.9,33.4-66.7,41.5c-18.7,5.9-130,12-151,12.9C1104.3,282,1102.9,281.5,1101.9,282.7z"/>
	<path id="Paupière_g" class="st3" d="M647.8,283c-0.6,1.6-2.2,1-3.3,1.2c-15.5,2.1-31,3.9-46.5,5c-13.2,0.9-26.4,2.9-39.8,2.9
		c-14.6-0.1-29.1,1.1-43.7,0.1c-25.9-1.8-49.9-9-72-22.9c-27.3-17.3-49.5-39.8-68.6-65.6c-10.1-13.7-19.8-27.7-30.2-41.2
		c-3.4-4.4-6.4-9.1-8.9-14.1c-1.6-3.6-5.2-5.8-9.1-5.7c-21.8-0.3-43.5-2.2-65.3-0.8c-2.1,0.1-4.3,1.3-6.4,0.2
		c-0.1-0.8,31.3-8.3,46.5-11.5c14.6-3.2,69.5-9.8,82-10.7c11.9-0.9,123,0.2,166.6,1.9c16.6,0.6,80,6.9,95,8.8
		c15.6,2,65.7,9.3,74.7,13.1c4.3,1.9,8.4,4.4,12.1,7.3c19.7,15,38.5,30.9,54.2,50.1c5.4,6.6,10.4,13.5,15.3,20.5
		c-8.8-5.1-17.8-9.7-26.1-15.5c-13-9-26-18.2-39.6-26.4c-1.3-0.8-2.7-2.3-4.4-0.9c-1.8,1.6-0.2,3.2,0.5,4.7
		c7.5,15.6,19.9,49.8,20,51.8c-4-6.3-7.7-11.8-11.1-17.5c-6.2-10.5-35.3-42-42.1-48.5c-2.2-3.2-5.7-5.3-9.5-5.7
		c-11.2-1.6-67.3-6.6-67.5-6.6c-1.4-0.1-115-9.7-115.1-9.7c-2.1-0.1-117.3-3.3-136.4-3.4c-2.4,0-5.4-1.3-6.8,1.8
		c-1.3,2.7,46.6,69.1,63.4,85.5c19.3,18.8,41.4,32.7,67.3,40.5c18.8,5.7,130.2,10,151.1,10.6C645.4,282.4,646.8,281.9,647.8,283z"/>
</g>
<g id="Shadows">
	<path id="shadow_haut_g" class="st4" d="M512.7,101.4c13.1-0.8,26.2-1.8,39.3-2.3c9.8-0.4,19.5-1.1,29.3,0.2
		c4.1,0.5,8.3,0.7,12.4,0.7c12.6,0.3,24.9,2.4,37.3,4.4c11.3,1.9,22.7,3.8,33.8,6.7c8.8,2.3,17.5,5,26.2,7.5c0.5,0.1,1,0.5,1,1.1
		c-0.9,1-2.3,0.5-3.3,0.4c-17.7-2-35.1-5.8-52.7-8.5c-12.5-1.9-25.1-3.4-37.6-5c-28.4-3.6-57-3.1-85.6-4.1L512.7,101.4z"/>
	<path id="shadow_bas_g" class="st4" d="M662.4,313.3c-14,4.4-28,8.9-42.6,10.8C633.6,319.1,647.3,313.4,662.4,313.3z"/>
	<path id="shadow_haut_dr" class="st4" d="M1234.3,99c-13.1-0.6-26.2-1.4-39.4-1.7c-9.8-0.2-19.6-0.8-29.3,0.7
		c-4.1,0.5-8.3,0.8-12.4,0.8c-12.6,0.5-24.9,2.7-37.3,5c-11.3,2.1-22.6,4.2-33.7,7.2c-8.8,2.4-17.4,5.3-26.1,7.9
		c-0.5,0.1-0.9,0.5-1,1.1c0.9,1,2.3,0.5,3.4,0.3c17.7-2.3,35-6.4,52.6-9.3c12.5-2.1,25-3.8,37.5-5.6c28.4-4.1,57-3.9,85.5-5.4
		L1234.3,99z"/>
	<path id="shadow_bas_dr" class="st4" d="M1087.8,313.1c14.1,4.2,28.1,8.5,42.7,10.2C1116.6,318.5,1102.9,313,1087.8,313.1z"/>
</g>
<g>
	<path d="M147,397.4h123.4c15.6,0,28.6,1.6,38.9,4.8c10.3,3.2,19.2,8,26.6,14.5c7.4,6.5,13.1,14.1,17.2,23c4,8.9,6,18.3,6,28.2
		c0,20-7.7,36.7-23,50.2c-15.3,13.5-36.5,20.2-63.5,20.2h-39.8v43.7c0,5.5,0.4,8.9,1.2,10.4c1,2.1,2.5,3.7,4.6,4.7
		c2.1,1,5.5,1.5,10.5,1.5H261v32.3H147v-32.3h7.9c7,0,11.6-0.5,13.8-1.5c2.2-1,3.9-2.6,4.9-4.8c1-2.2,1.5-6.7,1.5-13.5V450.4
		c0-7.1-0.4-11.8-1.3-14.1c-0.9-2.3-2.3-4-4.3-5c-2-1.1-5.7-1.6-11.2-1.6H147V397.4z M232.9,435.5v66.2h19.9
		c12.2,0,21.1-1.3,26.8-3.8s10.3-6.4,13.7-11.5c3.5-5.2,5.2-11.3,5.2-18.5c0-10.7-4.1-19.2-12.4-25.4c-6.1-4.7-15.2-7-27.3-7H232.9z
		"/>
	<path d="M465.4,459.8c19.1,0,35.7,3.7,49.8,11.2c14.2,7.5,25.1,17.6,32.7,30.5c7.6,12.9,11.5,28,11.5,45.2
		c0,26.1-8.5,47.3-25.4,63.6c-17,16.3-39.6,24.4-67.9,24.4c-28.9,0-51.9-8.2-68.9-24.6c-16.5-15.6-24.8-36.7-24.8-63.4
		c0-17.5,3.8-32.6,11.3-45.2c7.5-12.6,18.4-22.7,32.7-30.4C430.6,463.6,447,459.8,465.4,459.8z M466,496.4c-6.4,0-12.3,1.9-17.9,5.7
		c-5.6,3.8-9.9,9.4-13,16.7c-3.1,7.4-4.6,16.7-4.6,28.1c0,11.7,1.5,21.4,4.5,29.1c3,7.7,7.2,13.4,12.5,17.1
		c5.3,3.7,11.1,5.5,17.5,5.5c9.8,0,18.2-4.2,25.3-12.5c7-8.3,10.5-21.2,10.5-38.7c0-16.9-3.3-29.7-9.8-38.2
		C484.5,500.7,476.2,496.4,466,496.4z"/>
	<path d="M658.9,459.8v24.3c8.9-9.4,16.7-15.8,23.2-19.2c6.5-3.4,12.8-5.1,18.9-5.1c5.5,0,10.4,1.3,14.7,3.8
		c4.3,2.5,7.7,6.1,10.2,10.8c2.5,4.7,3.8,9.7,3.8,15.1c0,7-2.3,13.4-7,19.1c-4.6,5.7-11.2,8.5-19.5,8.5c-2.2,0-4.2-0.2-6-0.5
		s-5.4-1.4-11-3.3c-2.9-0.9-5.3-1.3-7.2-1.3c-2.9,0-7.7,1.8-14.4,5.5v65.4c0,5.6,0.4,9.2,1.3,10.9c0.8,1.7,2.2,2.9,4.1,3.7
		c1.9,0.8,6,1.2,12.4,1.2h7.4v32.3H586.5v-32.3h8.6c6.2,0,10-0.3,11.5-1c1.5-0.7,2.7-1.8,3.5-3.5c0.8-1.7,1.2-5.4,1.2-11.2V506
		h-24.8v-32.1c18.2-1.1,37.1-5.8,56.7-14.1H658.9z"/>
	<path d="M817.7,406.4v57.4h53.9v35.6h-53.9v58.2c0,13.2,0.7,21.6,2.1,25.3c1.4,3.7,4,6.7,7.8,8.9c5,3,10.8,4.5,17.2,4.5
		c11.5,0,22.9-3.7,34.3-11.2v35.8c-9.7,4.6-18.5,7.8-26.3,9.6c-7.9,1.8-16.4,2.8-25.5,2.8c-10.4,0-19.5-1.3-27.5-3.9
		c-8-2.6-14.8-6.4-20.4-11.2c-5.6-4.9-9.5-10-11.7-15.5c-2.2-5.5-3.3-13.4-3.3-23.8v-79.6h-25.1v-32.1c8.9-2.9,16.6-7.1,22.9-12.5
		c6.4-5.4,11.5-11.9,15.3-19.5c3.8-7.6,6.5-17.2,7.9-28.9H817.7z"/>
	<path d="M1006.2,463.8v35.3h-27.1V581c0,6.6,0.3,10.6,0.8,11.9c0.8,1.9,2.1,3.3,3.8,4.2c1.8,0.9,5.5,1.3,11,1.3h9.4v32.3H901v-32.3
		h8.2c6.7,0,10.8-0.3,12.2-1c1.4-0.7,2.5-1.9,3.3-3.6c0.7-1.7,1.1-6,1.1-12.8v-81.9H901v-35.3h24.8v-17.4c0-12.4,2.2-22.4,6.5-29.9
		c5.1-9.3,13.4-16.8,24.8-22.6c11.4-5.8,25-8.7,40.8-8.7c16.7,0,29.8,3.5,39.3,10.6c9.5,7.1,14.2,14.9,14.2,23.5
		c0,6.8-2.1,12.4-6.4,16.6c-4.3,4.3-10,6.4-17,6.4c-2.8,0-5.5-0.4-8.1-1.3c-2.6-0.8-5.1-2.1-7.4-3.8c-1.7-1.1-4.5-3.9-8.5-8.4
		c-3.8-4.1-6.4-6.6-7.7-7.4c-1.7-1-3.3-1.5-4.7-1.5c-3.8,0-6.8,1.8-9,5.3c-2.2,3.5-3.3,10.5-3.3,21v17.4H1006.2z"/>
	<path d="M1123.1,459.8c19.1,0,35.7,3.7,49.8,11.2c14.2,7.5,25.1,17.6,32.7,30.5c7.6,12.9,11.5,28,11.5,45.2
		c0,26.1-8.5,47.3-25.4,63.6c-17,16.3-39.6,24.4-67.9,24.4c-28.9,0-51.9-8.2-68.9-24.6c-16.5-15.6-24.8-36.7-24.8-63.4
		c0-17.5,3.8-32.6,11.3-45.2c7.5-12.6,18.4-22.7,32.7-30.4C1088.4,463.6,1104.7,459.8,1123.1,459.8z M1123.8,496.4
		c-6.4,0-12.3,1.9-17.9,5.7c-5.6,3.8-9.9,9.4-13,16.7c-3.1,7.4-4.6,16.7-4.6,28.1c0,11.7,1.5,21.4,4.5,29.1
		c3,7.7,7.2,13.4,12.5,17.1c5.3,3.7,11.1,5.5,17.5,5.5c9.8,0,18.2-4.2,25.3-12.5c7-8.3,10.5-21.2,10.5-38.7
		c0-16.9-3.3-29.7-9.8-38.2C1142.2,500.7,1133.9,496.4,1123.8,496.4z"/>
	<path d="M1317.5,385.2v195.7c0,6.6,0.3,10.5,0.8,11.7c0.8,2.2,2.5,3.8,5.2,4.9c1.7,0.7,6.2,1,13.5,1h5.9v32.3h-103.5v-32.3h6.4
		c6.7,0,11-0.4,12.9-1.3c1.9-0.8,3.3-2.2,4.2-4c0.9-1.8,1.3-5.9,1.3-12.3V431.7h-24.8v-32.3c20-1.4,40.6-6.1,61.9-14.2H1317.5z"/>
	<path d="M1437.6,459.8v123.6c0,5.9,0.3,9.5,1,10.9c0.7,1.3,1.9,2.4,3.6,3.1c1.7,0.7,5.6,1.1,11.6,1.1h9v32.3h-103.4v-32.3h8.9
		c5.8,0,9.5-0.3,11.1-0.9c1.6-0.6,2.8-1.6,3.6-3.1c0.8-1.4,1.2-4.3,1.2-8.7V506h-24.8v-31.4c8.8-0.4,17.3-1.4,25.3-2.8
		c8.1-1.4,15.3-3.2,21.7-5.2c4.1-1.3,9.2-3.6,15.2-6.7H1437.6z M1410.5,385.2c8.5,0,15.7,3,21.7,8.9c6,6,8.9,13.2,8.9,21.7
		c0,8.6-3,15.9-8.9,21.8c-6,6-13.2,8.9-21.7,8.9c-8.5,0-15.7-3-21.7-8.9c-6-6-8.9-13.2-8.9-21.7c0-8.4,3.1-15.6,9.2-21.7
		C1395.2,388.2,1402.3,385.2,1410.5,385.2z"/>
	<path d="M1575.2,459.8c19.1,0,35.7,3.7,49.8,11.2c14.2,7.5,25.1,17.6,32.7,30.5c7.6,12.9,11.5,28,11.5,45.2
		c0,26.1-8.5,47.3-25.4,63.6c-17,16.3-39.6,24.4-67.9,24.4c-28.9,0-51.9-8.2-68.9-24.6c-16.5-15.6-24.8-36.7-24.8-63.4
		c0-17.5,3.8-32.6,11.3-45.2c7.5-12.6,18.4-22.7,32.7-30.4C1540.5,463.6,1556.8,459.8,1575.2,459.8z M1575.9,496.4
		c-6.4,0-12.3,1.9-17.9,5.7c-5.6,3.8-9.9,9.4-13,16.7c-3.1,7.4-4.6,16.7-4.6,28.1c0,11.7,1.5,21.4,4.5,29.1
		c3,7.7,7.2,13.4,12.5,17.1c5.3,3.7,11.1,5.5,17.5,5.5c9.8,0,18.2-4.2,25.3-12.5c7-8.3,10.5-21.2,10.5-38.7
		c0-16.9-3.3-29.7-9.8-38.2C1594.4,500.7,1586.1,496.4,1575.9,496.4z"/>
</g>
</svg>
