<svg xmlns="http://www.w3.org/2000/svg" width="2019.8528" height="1271.6258" viewBox="0 0 2019.8528 1271.6258"><defs><style>.cls-1{font-size:457.2727px;}.cls-1,.cls-2{font-family:MyriadPro-Regular, Myriad Pro;}.cls-2{font-size:428.2787px;}.cls-3{fill:#006daa;}.cls-4{fill:#fcfcfc;}.cls-5{fill:#020202;}.cls-6{fill:#080808;}</style></defs><g id="Brackets"><text class="cls-1" transform="translate(115.5333 394.8898)">&lt;</text><text class="cls-2" transform="translate(1586.7611 405.8926)">/&gt;</text></g><g id="Pupilles"><g id="oeil_gauche" data-name="oeil gauche"><g id="Pupille_g" data-name="Pupille g"><path class="cls-3" d="M645.9086,277.9679l103.3,3.7012c-2.0416,4.0522-3.7419,7.9719-5.8994,11.6214Q721.5142,330.16,679.667,339.5318c-1.2991.29-2.1241.217-2.8449-1.1938q-15.087-29.528-30.2967-58.9932C646.3381,278.9807,646.1889,278.5971,645.9086,277.9679Z"/><path class="cls-3" d="M583.7056,303.9287c-2.9163-4.8511-6.0937-9.5663-8.701-14.5781a91.9363,91.9363,0,0,1-9.93-53.4391c.7664-6.9891,2.8887-13.83,4.3994-20.7367.2569-1.1749.8689-1.6485,2.2045-1.5978q33.0794,1.2567,66.1629,2.4078c.3963.0143.7908.0818,1.87.1981l-55.1531,87.7314Z"/><path class="cls-3" d="M695.588,241.711q-7.7215-14.8017-15.4174-29.5538c-1.13-5.3062,36.5032-2.265,35.1088-.3494-10.7285,16.3885-7.36,11.2-18.1168,27.57C696.7065,240.0719,696.2337,240.7552,695.588,241.711Z"/><path class="cls-3" d="M672.2505,340.8517c-3.7669.24-7.2332.6513-10.7.6531q-41.9772.0213-71.16-30.2028A11.5574,11.5574,0,0,0,589.38,310.23c-1.7062-1.36-1.4919-2.59-.3263-4.3817q17.6271-27.0883,35.0634-54.3011c.3775-.5858.7687-1.1627,1.3511-2.0419C641.0686,279.9665,656.5559,310.2065,672.2505,340.8517Z"/><path class="cls-3" d="M680.8359,273.7622q15.1815-23.1335,30.1825-45.9916c8.6057-13.1133,41.7584-9.8918,43.7779,3.2619a97.0826,97.0826,0,0,1-3.2146,43.4659c-.3831,1.2813-.8678,1.9273-2.4469,1.8661q-33.18-1.2866-66.3659-2.4253C682.3636,273.9246,681.96,273.8668,680.8359,273.7622Z"/></g><path id="Main_light_g" data-name="Main light g" class="cls-4" d="M738.34,284.3943a4.2986,4.2986,0,0,0-2.6635,1.6914c-1.75.5513-3.47,1.4479-5.2545,1.6-17.0244,1.4529-34.2864-2.8877-42.9634-20.5916-.5486-3.2573-1.2391-6.5137-.0676-9.7827,4.364-7.19,11.3073-9.3134,19.1331-9.9676,9.6071-.8032,18.1966,2.0246,26.306,6.8382l3.4465,3.0681C742.26,265.8968,745.6423,274.74,738.34,284.3943Z"/><path id="fill_light_g" data-name="fill light g" class="cls-4" d="M597.7534,309.0065a3.0256,3.0256,0,0,0-1.3313,1.2523,13.31,13.31,0,0,1-2.4906,1.3985c-7.7776,2.2279-15.2093.8985-17.7312-9.3508a16.4913,16.4913,0,0,1,.7344-6.033,14.2188,14.2188,0,0,1,9.3928-7.6486,12.5386,12.5386,0,0,1,11.3078,2.164l1.3116,1.6243C600.9642,297.2825,601.7955,302.4767,597.7534,309.0065Z"/></g><g id="oeil_droit" data-name="oeil droit"><g id="Pupille_dr" data-name="Pupille dr"><path class="cls-3" d="M1352.3735,275.6853l-103.2318,5.2634c2.1026,4.0209,3.8621,7.9144,6.0744,11.5308q22.35,36.5352,64.3342,45.2733c1.3034.2706,2.1271.1849,2.8266-1.2367q14.6383-29.7528,29.4008-59.4447C1351.9594,276.7045,1352.1028,276.3186,1352.3735,275.6853Z"/><path class="cls-3" d="M1414.9621,300.7021c2.8426-4.8946,5.9484-9.6574,8.48-14.708a91.9374,91.9374,0,0,0,9.12-53.5832c-.872-6.9767-3.0976-13.7845-4.7126-20.6678-.2746-1.1708-.8937-1.6352-2.2284-1.5642q-33.0565,1.757-66.1189,3.4084c-.3961.02-.7894.0937-1.8666.2263l56.4739,86.8871Z"/><path class="cls-3" d="M1302.1513,240.184,1317.12,210.4c1.0492-5.3227-36.5333-1.7125-35.11.1818,10.9752,16.2242,7.529,11.0871,18.5317,27.2926C1301.0082,238.5621,1301.4913,239.2382,1302.1513,240.184Z"/><path class="cls-3" d="M1326.9859,338.96c3.77.1834,7.2422.5418,10.7085.4911q41.9727-.6137,70.6948-31.2758a11.5517,11.5517,0,0,1,.9948-1.0876c1.6854-1.3857,1.4526-2.6125.26-4.3861q-18.0349-26.8188-35.8808-53.7645c-.3863-.58-.7863-1.151-1.3818-2.0213C1357.2432,277.61,1342.2152,308.0813,1326.9859,338.96Z"/><path class="cls-3" d="M1317.3866,272.0085l-30.8747-45.53c-8.8032-12.9816-41.9033-9.2589-43.7236,3.9238a97.0825,97.0825,0,0,0,3.8717,43.4123c.4025,1.2754.8969,1.9139,2.4749,1.8288q33.1569-1.7883,66.3216-3.4288C1315.8615,272.194,1316.2644,272.13,1317.3866,272.0085Z"/></g><path id="Main_light_dr" data-name="Main light dr" class="cls-4" d="M1367.3613,264.7263a4.2979,4.2979,0,0,1,.8177,3.0474c.916,1.59,1.5767,3.4137,2.7877,4.7326,11.5564,12.5854,27.2063,21.0645,45.5722,13.8942,2.6073-2.0281,5.3185-3.96,6.6669-7.16,1.6487-8.2471-2.0287-14.5079-7.35-20.2832-6.5326-7.09-14.7718-10.817-24.0006-12.7568l-4.6137-.0714C1376.9863,248.4511,1368.513,252.6768,1367.3613,264.7263Z"/><path id="fill_light_dr" data-name="fill light dr" class="cls-4" d="M1270.4094,317.6171a3.0254,3.0254,0,0,1,1.35,1.232,13.3066,13.3066,0,0,0,2.5114,1.3607c7.8105,2.11,15.2212.6683,17.5878-9.6179a16.491,16.491,0,0,0-.8256-6.0213,14.2188,14.2188,0,0,0-9.5074-7.5056,12.5385,12.5385,0,0,0-11.2738,2.3348l-1.2869,1.644C1267.0216,305.943,1266.269,311.1492,1270.4094,317.6171Z"/></g></g><g id="Paupieres"><path id="Paupière_dr" data-name="Paupière dr" class="cls-5" d="M1226.8664,364.411c.6646,1.5669,2.1685,1.0011,3.2692,1.1309,15.495,1.8275,31.0685,3.4751,46.5907,4.2584,13.2515.6687,26.4287,2.5392,39.7988,2.2743,14.5567-.2884,29.12.6572,43.7058-.5654,25.86-2.1675,49.7866-9.7118,71.5978-23.9455,27.0707-17.666,48.9253-40.5866,67.6352-66.67,9.9206-13.83,19.4143-27.9654,29.5976-41.6116a92.6555,92.6555,0,0,0,8.67-14.2122,9.6107,9.6107,0,0,1,9.0474-5.817c21.7574-.6716,43.469-2.8731,65.2817-1.8,2.12.1043,4.2728,1.2244,6.4109.13.1138-.7569-31.4147-7.7815-46.7029-10.834-14.6952-2.934-69.6134-8.7094-82.19-9.4333-11.9006-.6849-122.9772,2.05-166.5729,4.3916-16.624.8929-79.8648,8.1164-94.8657,10.2348-15.5666,2.1982-65.57,10.303-74.469,14.22a56.5268,56.5268,0,0,0-12.0311,7.5236c-19.4414,15.2638-37.9834,31.5139-53.4339,50.95-5.2954,6.6613-10.1476,13.6746-15.0338,20.7383,8.6768-5.2607,17.6418-9.9519,25.9018-15.8752,12.8786-9.2351,25.6915-18.58,39.1532-26.9718,1.2938-.8066,2.7045-2.3659,4.35-.9733,1.8412,1.5578.2886,3.1556-.4048,4.6588-7.2249,15.6642-19.1136,50.123-19.1844,52.1231,3.9364-6.3887,7.5569-11.9243,10.8333-17.6565,6.0334-10.5557,34.686-42.51,41.3978-49.1631a13.43,13.43,0,0,1,9.4183-5.8729c11.1656-1.7905,67.1607-7.6508,67.4027-7.6464,1.36-.1146,114.8794-11.4308,114.9761-11.4377,2.0846-.1108,117.2354-5.0488,136.318-5.4867,2.3983-.055,5.3548-1.3392,6.8428,1.7307,1.3228,2.7292-45.5234,69.7632-62.0778,86.4187-19.0068,19.1229-40.876,33.3594-66.6891,41.55-18.7268,5.9424-130.0452,12.0012-150.9694,12.9019C1229.2392,363.7246,1227.862,363.241,1226.8664,364.411Z"/><path id="Paupière_g" data-name="Paupière g" class="cls-5" d="M772.7436,364.7849c-.6409,1.5768-2.1532,1.0338-3.2517,1.18-15.4656,2.0616-31.0124,3.9446-46.521,4.9626-13.24.8691-26.3873,2.9388-39.76,2.8761-14.5595-.0681-29.107,1.0976-43.7094.0958-25.8895-1.7761-49.9278-8.9576-71.9518-22.86-27.3349-17.2544-49.5337-39.8418-68.636-65.6393-10.1287-13.6786-19.8351-27.6685-30.2237-41.1591a92.6546,92.6546,0,0,1-8.884-14.0794,9.6105,9.6105,0,0,0-9.1343-5.68c-21.765-.3424-43.5075-2.2152-65.3014-.8126-2.1184.1363-4.2538,1.2888-6.4082.2271-.1253-.7551,31.2934-8.2559,46.5336-11.5392,14.6491-3.156,69.4737-9.7615,82.0378-10.6755,11.8889-.8649,122.9941.1894,166.62,1.8712,16.6356.6413,79.9784,6.9074,95.01,8.7986,15.5981,1.9625,65.7184,9.31,74.6756,13.0914a56.529,56.529,0,0,1,12.1435,7.3408c19.67,14.968,38.4558,30.9357,54.1985,50.1355,5.3955,6.58,10.3533,13.52,15.3458,20.5085-8.7554-5.1288-17.79-9.6838-26.139-15.4815-13.0168-9.0392-25.97-18.189-39.5568-26.3765-1.3058-.7869-2.74-2.3247-4.3644-.9074-1.8174,1.5856-.2408,3.16.4752,4.6522,7.461,15.5531,19.87,49.8282,19.9707,51.827-4.0326-6.3285-7.7365-11.8087-11.0992-17.4906-6.1924-10.4632-35.3251-41.98-42.1367-48.5313a13.4294,13.4294,0,0,0-9.5061-5.73c-11.1914-1.6214-67.2688-6.634-67.5107-6.6259-1.3616-.094-115.0391-9.6917-115.1359-9.6971-2.0861-.0793-117.2984-3.2748-136.3854-3.424-2.3989-.0187-5.3745-1.2581-6.8159,1.834-1.2813,2.749,46.5735,69.0665,63.378,85.47,19.2939,18.8332,41.3759,32.7371,67.31,40.5368,18.8145,5.6584,130.2119,10.0326,151.1473,10.6166C770.3606,364.1345,771.73,363.63,772.7436,364.7849Z"/></g><g id="Shadows"><path id="shadow_haut_g" data-name="shadow haut g" class="cls-6" d="M637.6341,183.18c13.1113-.7834,26.2148-1.7617,39.3365-2.2861,9.7582-.39,19.5355-1.1066,29.3129.2222a110.1219,110.1219,0,0,0,12.428.6547c12.5907.2719,24.9476,2.3546,37.3312,4.4188,11.3438,1.8908,22.6744,3.8309,33.8069,6.6978,8.7947,2.2649,17.4705,4.991,26.1987,7.5141a1.1077,1.1077,0,0,1,.9687,1.067c-.9257,1.0173-2.2516.5163-3.3463.3921-17.7081-2.009-35.1271-5.8344-52.7443-8.4544-12.5223-1.8623-25.0706-3.3924-37.6216-4.9971-28.4423-3.6367-57.0383-3.0771-85.5789-4.0784Z"/><path id="shadow_bas_g" data-name="shadow bas g" class="cls-6" d="M787.3127,395.05c-13.9939,4.3843-27.96,8.8786-42.5553,10.8423C758.5882,400.8513,772.2459,395.1126,787.3127,395.05Z"/><path id="shadow_haut_dr" data-name="shadow haut dr" class="cls-6" d="M1359.2132,180.7829c-13.1217-.585-26.2384-1.365-39.3665-1.6909-9.7631-.2423-19.55-.8108-29.3063.6656a110.1167,110.1167,0,0,1-12.4166.8427c-12.5851.4624-24.9091,2.7317-37.26,4.983-11.3138,2.0622-22.6138,4.1735-33.7016,7.2085-8.76,2.3976-17.3931,5.2547-26.082,7.91a1.1077,1.1077,0,0,0-.9525,1.0816c.9409,1.0032,2.2591.4821,3.3518.3414,17.6758-2.2766,35.0349-6.3652,52.61-9.2513,12.4927-2.0515,25.0164-3.7712,37.5417-5.5657,28.384-4.0665,56.9852-3.94,85.5074-5.3725Z"/><path id="shadow_bas_dr" data-name="shadow bas dr" class="cls-6" d="M1212.7567,394.8934c14.0587,4.172,28.0917,8.4545,42.7145,10.1973C1241.5657,400.2591,1227.8228,394.7277,1212.7567,394.8934Z"/></g></svg>